<?xml version="1.0" standalone="no"?>
<!DOCTYPE svg PUBLIC "-//W3C//DTD SVG 20010904//EN"
 "http://www.w3.org/TR/2001/REC-SVG-20010904/DTD/svg10.dtd">
<svg version="1.0" xmlns="http://www.w3.org/2000/svg"
 width="1108.000000pt" height="1108.000000pt" viewBox="0 0 1108.000000 1108.000000"
 preserveAspectRatio="xMidYMid meet">
<metadata>
Created by potrace 1.14, written by Peter Selinger 2001-2017
</metadata>
<g transform="translate(0.000000,1108.000000) scale(0.100000,-0.100000)"
fill="#000000" stroke="none">
<path d="M5634 10614 c-27 -10 -51 -29 -69 -54 -29 -42 -64 -68 -166 -124
-122 -67 -172 -78 -379 -83 -102 -2 -216 -10 -255 -18 -38 -8 -83 -16 -100
-19 -16 -3 -39 -7 -50 -9 -11 -3 -40 -8 -65 -12 -25 -3 -78 -15 -118 -26 -41
-11 -89 -22 -108 -25 -50 -8 -220 -81 -296 -128 -97 -60 -240 -190 -407 -371
-85 -92 -105 -106 -225 -156 -192 -80 -241 -102 -306 -138 -36 -20 -90 -47
-120 -61 -70 -31 -174 -91 -178 -102 -2 -4 -8 -8 -13 -8 -12 0 -142 -86 -219
-146 -66 -49 -325 -305 -391 -384 -47 -57 -129 -174 -129 -185 0 -4 -11 -21
-24 -38 -13 -18 -66 -106 -117 -197 -99 -177 -166 -270 -226 -316 -36 -27
-181 -171 -301 -299 -102 -108 -290 -391 -430 -647 -49 -90 -123 -295 -161
-443 -48 -193 -54 -261 -49 -573 6 -323 8 -306 -61 -487 -32 -82 -66 -209 -76
-280 -3 -22 -10 -64 -15 -93 -13 -71 -23 -217 -24 -322 0 -252 46 -385 194
-561 81 -95 152 -229 170 -324 7 -33 23 -89 36 -125 13 -36 39 -123 58 -195
42 -157 82 -274 135 -386 21 -46 51 -113 66 -149 24 -59 122 -251 198 -390 74
-134 213 -345 309 -467 45 -57 222 -203 246 -203 6 0 12 -3 14 -8 4 -10 113
-66 169 -87 66 -24 107 -62 190 -173 199 -266 363 -430 498 -497 146 -73 257
-111 426 -146 55 -12 136 -34 180 -50 87 -32 251 -78 385 -109 298 -69 580
-224 769 -422 24 -25 38 -28 196 -47 400 -49 826 -53 1205 -12 151 17 370 54
365 62 -3 4 3 5 13 2 17 -4 249 42 312 62 3 1 33 8 68 15 34 8 62 17 62 20 0
3 12 7 26 8 15 1 32 6 39 12 6 5 14 7 17 5 3 -3 18 -1 34 6 16 6 52 17 79 24
28 8 64 19 80 26 17 7 35 13 40 15 6 1 55 19 110 39 55 20 115 42 133 48 17 5
32 14 32 19 0 5 4 7 9 3 5 -3 12 -1 16 5 3 5 13 10 20 10 13 0 54 17 190 81
28 12 53 22 56 21 4 -1 18 9 32 22 14 13 28 22 30 19 6 -6 229 111 334 175 43
26 90 53 106 61 15 8 27 18 27 23 0 4 5 8 10 8 9 0 109 62 137 85 7 6 19 16
27 23 8 6 19 12 23 12 15 0 63 47 56 54 -4 4 -1 4 8 1 8 -3 24 2 35 12 11 10
35 29 54 43 19 13 40 28 45 32 6 4 32 26 60 48 27 22 53 40 58 40 4 0 5 5 2
10 -3 5 1 10 9 10 9 0 16 5 16 10 0 6 5 10 10 10 6 0 24 13 40 30 16 16 34 30
40 30 6 0 8 5 5 10 -3 6 -1 10 4 10 17 0 59 39 266 245 200 200 245 248 245
266 0 5 5 7 10 4 6 -3 10 -2 10 3 0 5 18 28 40 51 22 22 40 46 40 51 0 6 4 10
8 10 4 0 25 25 47 55 22 31 52 70 68 88 15 17 25 37 22 45 -2 7 -1 11 4 8 17
-11 225 289 214 307 -3 6 -1 7 5 3 7 -4 12 -3 12 2 0 5 14 29 31 55 17 26 28
51 25 56 -4 5 -1 13 5 17 8 4 9 3 5 -4 -4 -7 -5 -12 -2 -12 5 0 69 111 101
175 11 22 23 42 27 45 6 5 151 304 167 345 5 11 18 40 30 63 11 24 18 48 15
53 -3 5 -1 9 4 9 9 0 24 40 21 56 0 4 3 10 8 13 9 6 43 89 47 114 1 6 8 22 14
35 7 12 10 22 6 22 -3 0 -1 7 6 15 7 8 9 15 5 15 -4 0 -2 7 5 15 10 12 10 18
0 30 -11 13 -10 14 2 10 11 -4 19 10 33 57 11 35 20 70 21 78 0 8 6 26 12 40
6 14 14 39 18 55 4 17 8 32 9 35 37 122 98 403 99 457 1 17 4 29 9 26 4 -2 8
11 9 29 0 18 2 38 3 43 11 70 15 96 20 130 13 107 18 165 19 225 1 36 5 68 10
71 17 13 12 628 -8 819 -2 19 -4 54 -5 78 0 24 -4 41 -8 39 -5 -3 -8 12 -7 32
1 21 -3 64 -8 97 -5 32 -11 77 -14 99 -2 22 -7 47 -11 55 -3 8 -7 24 -8 35 -3
22 -12 68 -19 100 -2 11 -5 30 -5 43 -1 13 -5 20 -11 17 -5 -3 -7 0 -4 8 3 8
0 35 -7 58 -7 24 -13 46 -14 49 -15 79 -29 129 -35 125 -3 -2 -6 6 -5 18 3 36
-11 72 -26 69 -11 -3 -11 -1 -3 8 12 12 7 50 -6 50 -4 0 -7 6 -6 13 2 23 -26
117 -36 117 -5 0 -6 4 -3 10 3 5 1 19 -5 31 -7 11 -14 33 -16 47 -3 15 -9 31
-15 37 -5 5 -9 17 -9 27 0 10 -4 18 -8 18 -4 0 -8 10 -9 22 -1 11 -6 24 -10
27 -4 3 -9 14 -11 23 -3 19 -47 126 -93 226 -16 35 -29 68 -29 73 0 5 -5 9
-12 9 -6 0 -9 3 -5 6 10 10 -174 361 -197 376 -6 4 -7 8 -3 8 4 0 -8 25 -28
55 -19 31 -35 60 -35 65 0 6 -4 10 -9 10 -5 0 -11 8 -15 18 -7 20 -25 49 -48
76 -10 11 -20 28 -24 38 -3 10 -10 15 -16 12 -6 -4 -8 -2 -4 4 3 6 -1 17 -9
25 -8 9 -15 21 -15 27 0 6 -6 13 -14 16 -8 3 -17 17 -20 30 -4 14 -10 23 -14
20 -4 -2 -18 14 -32 35 -13 21 -28 39 -32 39 -4 0 -8 7 -8 15 0 7 -6 18 -14
22 -7 4 -15 13 -17 19 -5 14 -53 74 -96 121 -18 19 -33 38 -33 42 0 3 -8 14
-17 22 -10 9 -37 38 -59 65 -79 93 -94 109 -94 100 0 -5 -11 6 -23 25 -13 19
-29 33 -36 31 -7 -1 -10 1 -7 6 7 12 -284 292 -304 292 -6 0 -8 5 -5 10 3 6 2
10 -4 10 -5 0 -17 7 -25 16 -18 18 -132 110 -171 138 -14 11 -38 30 -53 43
-15 13 -30 23 -33 23 -4 0 -22 13 -40 30 -19 16 -38 30 -42 30 -4 0 -19 11
-33 25 -14 14 -35 27 -49 31 -13 3 -26 12 -29 20 -3 8 -12 14 -21 14 -8 0 -15
3 -15 8 0 10 -71 48 -83 44 -5 -1 -6 1 -3 6 3 5 -7 15 -22 23 -15 8 -46 26
-68 42 -23 15 -46 27 -51 27 -5 0 -19 9 -32 21 -12 12 -33 22 -46 23 -13 0
-21 4 -19 8 3 4 -23 21 -58 38 -34 17 -68 36 -75 42 -7 6 -13 7 -13 4 0 -4
-13 2 -29 13 -15 11 -31 18 -35 14 -3 -3 -6 -1 -6 5 0 7 -8 12 -17 12 -10 0
-29 9 -43 20 -14 11 -30 20 -36 20 -6 0 -37 13 -70 28 -32 16 -75 34 -94 42
-19 7 -39 17 -44 22 -6 4 -16 8 -23 8 -7 0 -32 9 -56 19 -81 37 -209 82 -237
84 -15 1 -26 5 -24 9 3 4 -15 12 -38 18 -24 6 -52 14 -63 18 -11 3 -22 6 -25
7 -3 0 -22 7 -43 14 -21 7 -45 10 -53 7 -8 -3 -13 -2 -10 3 5 8 -23 17 -109
36 -11 2 -54 13 -95 23 -123 31 -183 44 -212 45 -16 1 -28 5 -28 8 0 3 -12 5
-27 5 -16 -1 -33 2 -39 7 -7 4 -16 7 -20 5 -8 -1 -38 3 -118 18 -16 3 -88 12
-156 19 -14 2 -47 6 -75 9 -78 10 -168 16 -320 21 -111 4 -149 2 -181 -11z
m4933 -4279 c0 -8 -4 -12 -9 -9 -5 3 -6 10 -3 15 9 13 12 11 12 -6z"/>
</g>
</svg>
